<svg width="165" height="53" viewBox="0 0 165 53" fill="none" xmlns="http://www.w3.org/2000/svg">
<g filter="url(#filter0_di_37_102)">
<ellipse cx="138" cy="22.6933" rx="8" ry="6.95499" fill="#F27219"/>
</g>
<rect x="136.261" y="18.7627" width="3.47826" height="7.86217" rx="0.782609" fill="white"/>
<rect x="142.522" y="21.1816" width="3.02391" height="9.04348" rx="0.782609" transform="rotate(90 142.522 21.1816)" fill="white"/>
<path d="M15.552 27.3334V44.0854H12.192V36.9574H5.016V44.0854H1.656V27.3334H5.016V34.2214H12.192V27.3334H15.552ZM31.2191 37.1494C31.2191 37.6294 31.1871 38.0614 31.1231 38.4454H21.4031C21.4831 39.4054 21.8191 40.1574 22.4111 40.7014C23.0031 41.2454 23.7311 41.5174 24.5951 41.5174C25.8431 41.5174 26.7311 40.9814 27.2591 39.9094H30.8831C30.4991 41.1894 29.7631 42.2454 28.6751 43.0774C27.5871 43.8934 26.2511 44.3014 24.6671 44.3014C23.3871 44.3014 22.2351 44.0214 21.2111 43.4614C20.2031 42.8854 19.4111 42.0774 18.8351 41.0374C18.2751 39.9974 17.9951 38.7974 17.9951 37.4374C17.9951 36.0614 18.2751 34.8534 18.8351 33.8134C19.3951 32.7734 20.1791 31.9734 21.1871 31.4134C22.1951 30.8534 23.3551 30.5734 24.6671 30.5734C25.9311 30.5734 27.0591 30.8454 28.0511 31.3894C29.0591 31.9334 29.8351 32.7094 30.3791 33.7174C30.9391 34.7094 31.2191 35.8534 31.2191 37.1494ZM27.7391 36.1894C27.7231 35.3254 27.4111 34.6374 26.8031 34.1254C26.1951 33.5974 25.4511 33.3334 24.5711 33.3334C23.7391 33.3334 23.0351 33.5894 22.4591 34.1014C21.8991 34.5974 21.5551 35.2934 21.4271 36.1894H27.7391ZM32.8076 37.3894C32.8076 36.0454 33.0716 34.8534 33.5996 33.8134C34.1436 32.7734 34.8716 31.9734 35.7836 31.4134C36.7116 30.8534 37.7436 30.5734 38.8796 30.5734C39.8716 30.5734 40.7356 30.7734 41.4716 31.1734C42.2236 31.5734 42.8236 32.0774 43.2716 32.6854V30.7894H46.6556V44.0854H43.2716V42.1414C42.8396 42.7654 42.2396 43.2854 41.4716 43.7014C40.7196 44.1014 39.8476 44.3014 38.8556 44.3014C37.7356 44.3014 36.7116 44.0134 35.7836 43.4374C34.8716 42.8614 34.1436 42.0534 33.5996 41.0134C33.0716 39.9574 32.8076 38.7494 32.8076 37.3894ZM43.2716 37.4374C43.2716 36.6214 43.1116 35.9254 42.7916 35.3494C42.4716 34.7574 42.0396 34.3094 41.4956 34.0054C40.9516 33.6854 40.3676 33.5254 39.7436 33.5254C39.1196 33.5254 38.5436 33.6774 38.0156 33.9814C37.4876 34.2854 37.0556 34.7334 36.7196 35.3254C36.3996 35.9014 36.2396 36.5894 36.2396 37.3894C36.2396 38.1894 36.3996 38.8934 36.7196 39.5014C37.0556 40.0934 37.4876 40.5494 38.0156 40.8694C38.5596 41.1894 39.1356 41.3494 39.7436 41.3494C40.3676 41.3494 40.9516 41.1974 41.4956 40.8934C42.0396 40.5734 42.4716 40.1254 42.7916 39.5494C43.1116 38.9574 43.2716 38.2534 43.2716 37.4374ZM53.2973 26.3254V44.0854H49.9373V26.3254H53.2973ZM60.5289 33.5494V39.9814C60.5289 40.4294 60.6329 40.7574 60.8409 40.9654C61.0649 41.1574 61.4329 41.2534 61.9449 41.2534H63.5049V44.0854H61.3929C58.5609 44.0854 57.1449 42.7094 57.1449 39.9574V33.5494H55.5609V30.7894H57.1449V27.5014H60.5289V30.7894H63.5049V33.5494H60.5289ZM73.4096 30.5974C74.4176 30.5974 75.3136 30.8214 76.0976 31.2694C76.8816 31.7014 77.4896 32.3494 77.9216 33.2134C78.3696 34.0614 78.5936 35.0854 78.5936 36.2854V44.0854H75.2336V36.7414C75.2336 35.6854 74.9696 34.8774 74.4416 34.3174C73.9136 33.7414 73.1936 33.4534 72.2816 33.4534C71.3536 33.4534 70.6176 33.7414 70.0736 34.3174C69.5456 34.8774 69.2816 35.6854 69.2816 36.7414V44.0854H65.9216V26.3254H69.2816V32.4454C69.7136 31.8694 70.2896 31.4214 71.0096 31.1014C71.7296 30.7654 72.5296 30.5974 73.4096 30.5974ZM94.5088 30.7894L86.2768 50.3734H82.7008L85.5808 43.7494L80.2528 30.7894H84.0208L87.4528 40.0774L90.9328 30.7894H94.5088ZM102.711 40.2934C104.247 39.0134 105.471 37.9494 106.383 37.1014C107.295 36.2374 108.055 35.3414 108.663 34.4134C109.271 33.4854 109.575 32.5734 109.575 31.6774C109.575 30.8614 109.383 30.2214 108.999 29.7574C108.615 29.2934 108.023 29.0614 107.223 29.0614C106.423 29.0614 105.807 29.3334 105.375 29.8774C104.943 30.4054 104.719 31.1334 104.703 32.0614H101.439C101.503 30.1414 102.071 28.6854 103.143 27.6934C104.231 26.7014 105.607 26.2054 107.271 26.2054C109.095 26.2054 110.495 26.6934 111.471 27.6694C112.447 28.6294 112.935 29.9014 112.935 31.4854C112.935 32.7334 112.599 33.9254 111.927 35.0614C111.255 36.1974 110.487 37.1894 109.623 38.0374C108.759 38.8694 107.631 39.8774 106.239 41.0614H113.319V43.8454H101.463V41.3494L102.711 40.2934ZM115.292 40.6774V38.0374L123.14 26.8054H127.052V37.7494H129.164V40.6774H127.052V44.0854H123.692V40.6774H115.292ZM123.908 30.4054L118.988 37.7494H123.908V30.4054ZM133.175 44.2534C132.567 44.2534 132.063 44.0694 131.663 43.7014C131.279 43.3174 131.087 42.8454 131.087 42.2854C131.087 41.7254 131.279 41.2614 131.663 40.8934C132.063 40.5094 132.567 40.3174 133.175 40.3174C133.767 40.3174 134.255 40.5094 134.639 40.8934C135.023 41.2614 135.215 41.7254 135.215 42.2854C135.215 42.8454 135.023 43.3174 134.639 43.7014C134.255 44.0694 133.767 44.2534 133.175 44.2534Z" fill="white"/>
<defs>
<filter id="filter0_di_37_102" x="111" y="0.738281" width="54" height="51.9102" filterUnits="userSpaceOnUse" color-interpolation-filters="sRGB">
<feFlood flood-opacity="0" result="BackgroundImageFix"/>
<feColorMatrix in="SourceAlpha" type="matrix" values="0 0 0 0 0 0 0 0 0 0 0 0 0 0 0 0 0 0 127 0" result="hardAlpha"/>
<feOffset dy="4"/>
<feGaussianBlur stdDeviation="9.5"/>
<feComposite in2="hardAlpha" operator="out"/>
<feColorMatrix type="matrix" values="0 0 0 0 0.0862745 0 0 0 0 0.470588 0 0 0 0 0.94902 0 0 0 0.2 0"/>
<feBlend mode="normal" in2="BackgroundImageFix" result="effect1_dropShadow_37_102"/>
<feBlend mode="normal" in="SourceGraphic" in2="effect1_dropShadow_37_102" result="shape"/>
<feColorMatrix in="SourceAlpha" type="matrix" values="0 0 0 0 0 0 0 0 0 0 0 0 0 0 0 0 0 0 127 0" result="hardAlpha"/>
<feOffset dy="4"/>
<feGaussianBlur stdDeviation="2"/>
<feComposite in2="hardAlpha" operator="arithmetic" k2="-1" k3="1"/>
<feColorMatrix type="matrix" values="0 0 0 0 0 0 0 0 0 0 0 0 0 0 0 0 0 0 0.12 0"/>
<feBlend mode="normal" in2="shape" result="effect2_innerShadow_37_102"/>
</filter>
</defs>
</svg>
