<svg width="162" height="55" viewBox="0 0 162 55" fill="none" xmlns="http://www.w3.org/2000/svg">
<g filter="url(#filter0_di_37_462)">
<circle cx="134.5" cy="23.5" r="8.5" fill="#F27219"/>
</g>
<rect x="132.652" y="18.6958" width="3.69565" height="9.6087" rx="0.782609" fill="white"/>
<rect x="139.304" y="21.6523" width="3.69565" height="9.6087" rx="0.782609" transform="rotate(90 139.304 21.6523)" fill="white"/>
<path d="M15.552 26.748V43.5H12.192V36.372H5.016V43.5H1.656V26.748H5.016V33.636H12.192V26.748H15.552ZM31.2191 36.564C31.2191 37.044 31.1871 37.476 31.1231 37.86H21.4031C21.4831 38.82 21.8191 39.572 22.4111 40.116C23.0031 40.66 23.7311 40.932 24.5951 40.932C25.8431 40.932 26.7311 40.396 27.2591 39.324H30.8831C30.4991 40.604 29.7631 41.66 28.6751 42.492C27.5871 43.308 26.2511 43.716 24.6671 43.716C23.3871 43.716 22.2351 43.436 21.2111 42.876C20.2031 42.3 19.4111 41.492 18.8351 40.452C18.2751 39.412 17.9951 38.212 17.9951 36.852C17.9951 35.476 18.2751 34.268 18.8351 33.228C19.3951 32.188 20.1791 31.388 21.1871 30.828C22.1951 30.268 23.3551 29.988 24.6671 29.988C25.9311 29.988 27.0591 30.26 28.0511 30.804C29.0591 31.348 29.8351 32.124 30.3791 33.132C30.9391 34.124 31.2191 35.268 31.2191 36.564ZM27.7391 35.604C27.7231 34.74 27.4111 34.052 26.8031 33.54C26.1951 33.012 25.4511 32.748 24.5711 32.748C23.7391 32.748 23.0351 33.004 22.4591 33.516C21.8991 34.012 21.5551 34.708 21.4271 35.604H27.7391ZM32.8076 36.804C32.8076 35.46 33.0716 34.268 33.5996 33.228C34.1436 32.188 34.8716 31.388 35.7836 30.828C36.7116 30.268 37.7436 29.988 38.8796 29.988C39.8716 29.988 40.7356 30.188 41.4716 30.588C42.2236 30.988 42.8236 31.492 43.2716 32.1V30.204H46.6556V43.5H43.2716V41.556C42.8396 42.18 42.2396 42.7 41.4716 43.116C40.7196 43.516 39.8476 43.716 38.8556 43.716C37.7356 43.716 36.7116 43.428 35.7836 42.852C34.8716 42.276 34.1436 41.468 33.5996 40.428C33.0716 39.372 32.8076 38.164 32.8076 36.804ZM43.2716 36.852C43.2716 36.036 43.1116 35.34 42.7916 34.764C42.4716 34.172 42.0396 33.724 41.4956 33.42C40.9516 33.1 40.3676 32.94 39.7436 32.94C39.1196 32.94 38.5436 33.092 38.0156 33.396C37.4876 33.7 37.0556 34.148 36.7196 34.74C36.3996 35.316 36.2396 36.004 36.2396 36.804C36.2396 37.604 36.3996 38.308 36.7196 38.916C37.0556 39.508 37.4876 39.964 38.0156 40.284C38.5596 40.604 39.1356 40.764 39.7436 40.764C40.3676 40.764 40.9516 40.612 41.4956 40.308C42.0396 39.988 42.4716 39.54 42.7916 38.964C43.1116 38.372 43.2716 37.668 43.2716 36.852ZM53.2973 25.74V43.5H49.9373V25.74H53.2973ZM60.5289 32.964V39.396C60.5289 39.844 60.6329 40.172 60.8409 40.38C61.0649 40.572 61.4329 40.668 61.9449 40.668H63.5049V43.5H61.3929C58.5609 43.5 57.1449 42.124 57.1449 39.372V32.964H55.5609V30.204H57.1449V26.916H60.5289V30.204H63.5049V32.964H60.5289ZM73.4096 30.012C74.4176 30.012 75.3136 30.236 76.0976 30.684C76.8816 31.116 77.4896 31.764 77.9216 32.628C78.3696 33.476 78.5936 34.5 78.5936 35.7V43.5H75.2336V36.156C75.2336 35.1 74.9696 34.292 74.4416 33.732C73.9136 33.156 73.1936 32.868 72.2816 32.868C71.3536 32.868 70.6176 33.156 70.0736 33.732C69.5456 34.292 69.2816 35.1 69.2816 36.156V43.5H65.9216V25.74H69.2816V31.86C69.7136 31.284 70.2896 30.836 71.0096 30.516C71.7296 30.18 72.5296 30.012 73.4096 30.012ZM94.5088 30.204L86.2768 49.788H82.7008L85.5808 43.164L80.2528 30.204H84.0208L87.4528 39.492L90.9328 30.204H94.5088ZM102.711 39.708C104.247 38.428 105.471 37.364 106.383 36.516C107.295 35.652 108.055 34.756 108.663 33.828C109.271 32.9 109.575 31.988 109.575 31.092C109.575 30.276 109.383 29.636 108.999 29.172C108.615 28.708 108.023 28.476 107.223 28.476C106.423 28.476 105.807 28.748 105.375 29.292C104.943 29.82 104.719 30.548 104.703 31.476H101.439C101.503 29.556 102.071 28.1 103.143 27.108C104.231 26.116 105.607 25.62 107.271 25.62C109.095 25.62 110.495 26.108 111.471 27.084C112.447 28.044 112.935 29.316 112.935 30.9C112.935 32.148 112.599 33.34 111.927 34.476C111.255 35.612 110.487 36.604 109.623 37.452C108.759 38.284 107.631 39.292 106.239 40.476H113.319V43.26H101.463V40.764L102.711 39.708ZM115.292 40.092V37.452L123.14 26.22H127.052V37.164H129.164V40.092H127.052V43.5H123.692V40.092H115.292ZM123.908 29.82L118.988 37.164H123.908V29.82ZM133.175 43.668C132.567 43.668 132.063 43.484 131.663 43.116C131.279 42.732 131.087 42.26 131.087 41.7C131.087 41.14 131.279 40.676 131.663 40.308C132.063 39.924 132.567 39.732 133.175 39.732C133.767 39.732 134.255 39.924 134.639 40.308C135.023 40.676 135.215 41.14 135.215 41.7C135.215 42.26 135.023 42.732 134.639 43.116C134.255 43.484 133.767 43.668 133.175 43.668Z" fill="#005EA3"/>
<defs>
<filter id="filter0_di_37_462" x="107" y="0" width="55" height="55" filterUnits="userSpaceOnUse" color-interpolation-filters="sRGB">
<feFlood flood-opacity="0" result="BackgroundImageFix"/>
<feColorMatrix in="SourceAlpha" type="matrix" values="0 0 0 0 0 0 0 0 0 0 0 0 0 0 0 0 0 0 127 0" result="hardAlpha"/>
<feOffset dy="4"/>
<feGaussianBlur stdDeviation="9.5"/>
<feComposite in2="hardAlpha" operator="out"/>
<feColorMatrix type="matrix" values="0 0 0 0 0.0862745 0 0 0 0 0.470588 0 0 0 0 0.94902 0 0 0 0.2 0"/>
<feBlend mode="normal" in2="BackgroundImageFix" result="effect1_dropShadow_37_462"/>
<feBlend mode="normal" in="SourceGraphic" in2="effect1_dropShadow_37_462" result="shape"/>
<feColorMatrix in="SourceAlpha" type="matrix" values="0 0 0 0 0 0 0 0 0 0 0 0 0 0 0 0 0 0 127 0" result="hardAlpha"/>
<feOffset dy="4"/>
<feGaussianBlur stdDeviation="2"/>
<feComposite in2="hardAlpha" operator="arithmetic" k2="-1" k3="1"/>
<feColorMatrix type="matrix" values="0 0 0 0 0 0 0 0 0 0 0 0 0 0 0 0 0 0 0.12 0"/>
<feBlend mode="normal" in2="shape" result="effect2_innerShadow_37_462"/>
</filter>
</defs>
</svg>
