<svg width="151" height="188" viewBox="0 0 151 188" fill="none" xmlns="http://www.w3.org/2000/svg">
<path d="M86.2414 10.9919L70.962 17.6653L74.3597 27.5556L84.9135 22.9462L92.5016 45.0345C98.2159 61.6683 89.9321 80.8482 74.0385 87.7898L71.8332 88.753C55.938 95.6953 38.3581 87.8096 32.6444 71.1775L25.0563 49.0891L35.61 44.4797L32.2124 34.5894L16.933 41.2627C14.323 42.4027 12.968 45.5405 13.9063 48.2718L23.1932 75.3053C30.7808 97.3919 54.125 107.861 75.2309 98.6433L77.4362 97.6801C98.542 88.462 109.54 62.9932 101.953 40.9066L92.6658 13.8732C91.7275 11.1418 88.8514 9.85199 86.2414 10.9919Z" fill="#F3F7FF"/>
<path d="M67.003 10.2997C64.3464 11.4532 62.9674 14.6299 63.9227 17.3955L68.7653 31.416C69.7206 34.1817 72.6481 35.4884 75.3047 34.3349C77.9613 33.1814 79.3403 30.0048 78.385 27.2391L73.5424 13.2186C72.5871 10.453 69.6596 9.14625 67.003 10.2997Z" fill="#F3F7FF"/>
<path d="M30.3596 25.8051C27.7031 26.9586 26.3241 30.1352 27.2793 32.9009L32.1219 46.9214C33.0772 49.687 36.0047 50.9938 38.6613 49.8403C41.3179 48.6868 42.6969 45.5102 41.7416 42.7445L36.899 28.724C35.9438 25.9584 33.0162 24.6516 30.3596 25.8051Z" fill="#F3F7FF"/>
<path d="M90.8718 120.184L81.2083 92.0529L71.7201 96.1971L81.3836 124.328L66.0445 131.028C53.6625 136.436 47.2102 151.376 51.6605 164.331C56.1114 177.288 69.8768 183.398 82.3458 177.952L84.5597 176.985C96.9417 171.577 103.394 156.636 98.943 143.68L94.2824 130.112L110.412 123.067L107.002 113.139L90.8718 120.184ZM89.4543 147.822C92.0242 155.303 88.2977 163.932 81.1484 167.055L78.9345 168.022C71.5749 171.236 63.7623 167.796 61.148 160.185C58.5781 152.704 62.3052 144.077 69.4545 140.955L84.7937 134.255L89.4543 147.822Z" fill="#F3F7FF"/>
<path d="M112.627 98.9661C104.448 102.539 100.185 112.41 103.126 120.973C106.066 129.532 115.112 133.591 123.293 130.017C131.473 126.444 135.736 116.571 132.796 108.012C129.856 99.4506 120.809 95.392 112.627 98.9661ZM119.888 120.105C116.93 121.397 113.658 119.93 112.595 116.835C111.531 113.738 113.073 110.167 116.031 108.875C118.99 107.583 122.262 109.05 123.326 112.147C124.389 115.242 122.847 118.813 119.888 120.105Z" fill="#F3F7FF"/>
</svg>
