<svg width="64" height="64" viewBox="0 0 64 64" fill="none" xmlns="http://www.w3.org/2000/svg">
<g opacity="0.5">
<path d="M32 5.33331C17.3067 5.33331 5.33334 17.3066 5.33334 32C5.33334 46.6933 17.3067 58.6666 32 58.6666C46.6933 58.6666 58.6667 46.6933 58.6667 32C58.6667 17.3066 46.6933 5.33331 32 5.33331ZM42.8267 36.7733C42.4267 37.1733 41.92 37.36 41.4133 37.36C40.9067 37.36 40.4 37.1733 40 36.7733L32 28.7733L24 36.7733C23.2267 37.5466 21.9467 37.5466 21.1733 36.7733C20.8014 36.3969 20.5928 35.8891 20.5928 35.36C20.5928 34.8308 20.8014 34.323 21.1733 33.9466L30.5867 24.5333C31.36 23.76 32.64 23.76 33.4133 24.5333L42.8267 33.9466C43.6 34.7466 43.6 36 42.8267 36.7733Z" fill="#1678F2"/>
</g>
</svg>
